GSerif01-TextBold03.ufo
<glyph name="two" format="1">
  <advance width="638"/>
  <unicode hex="0032"/>
  <outline>
    <contour>
      <point x="151" y="31" type="line"/>
      <point x="97" y="114" type="line"/>
      <point x="504" y="114" type="line"/>
      <point x="504" y="114" type="line"/>
      <point x="504" y="220" type="line"/>
      <point x="599" y="220" type="line"/>
      <point x="599" y="0" type="line"/>
      <point x="32" y="0" type="line"/>
      <point x="32" y="64" type="line" smooth="yes"/>
      <point x="32" y="350"/>
      <point x="408" y="292"/>
      <point x="408" y="525" type="curve"/>
      <point x="408" y="595"/>
      <point x="373" y="631"/>
      <point x="318" y="631" type="curve" smooth="yes"/>
      <point x="249" y="631"/>
      <point x="220" y="582"/>
      <point x="207" y="493" type="curve"/>
      <point x="46" y="493" type="line"/>
      <point x="66" y="631"/>
      <point x="170" y="720"/>
      <point x="328" y="720" type="curve" smooth="yes"/>
      <point x="481" y="720"/>
      <point x="581" y="645"/>
      <point x="581" y="518" type="curve"/>
      <point x="581" y="246"/>
      <point x="151" y="288"/>
      <point x="151" y="73" type="curve" smooth="yes"/>
    </contour>
  </outline>
</glyph>
<glyph name="three" format="1">
  <advance width="669"/>
  <unicode hex="0033"/>
  <outline>
    <contour>
      <point x="399" y="379" type="line"/>
      <point x="540" y="379"/>
      <point x="633" y="319"/>
      <point x="633" y="208" type="curve" smooth="yes"/>
      <point x="633" y="60"/>
      <point x="499" y="-10"/>
      <point x="344" y="-10" type="curve" smooth="yes"/>
      <point x="172" y="-10"/>
      <point x="51" y="68"/>
      <point x="33" y="226" type="curve"/>
      <point x="203" y="226" type="line"/>
      <point x="212" y="123"/>
      <point x="261" y="80"/>
      <point x="336" y="80" type="curve" smooth="yes"/>
      <point x="406" y="80"/>
      <point x="459" y="120"/>
      <point x="459" y="217" type="curve" smooth="yes"/>
      <point x="459" y="307"/>
      <point x="408" y="334"/>
      <point x="324" y="334" type="curve" smooth="yes"/>
      <point x="237" y="334" type="line"/>
      <point x="237" y="403" type="line"/>
      <point x="314" y="403" type="line" smooth="yes"/>
      <point x="390" y="403"/>
      <point x="430" y="446"/>
      <point x="430" y="520" type="curve" smooth="yes"/>
      <point x="430" y="592"/>
      <point x="398" y="630"/>
      <point x="339" y="630" type="curve" smooth="yes"/>
      <point x="270" y="630"/>
      <point x="235" y="582"/>
      <point x="227" y="498" type="curve"/>
      <point x="61" y="498" type="line"/>
      <point x="78" y="635"/>
      <point x="187" y="720"/>
      <point x="345" y="720" type="curve" smooth="yes"/>
      <point x="503" y="720"/>
      <point x="597" y="648"/>
      <point x="597" y="536" type="curve" smooth="yes"/>
      <point x="597" y="435"/>
      <point x="512" y="371"/>
      <point x="377" y="371" type="curve"/>
    </contour>
  </outline>
</glyph>
<glyph name="C" format="1">
  <advance width="763"/>
  <unicode hex="0043"/>
  <outline>
    <contour>
      <point x="38" y="354" type="curve" smooth="yes"/>
      <point x="38" y="136"/>
      <point x="198" y="-11"/>
      <point x="412" y="-11" type="curve" smooth="yes"/>
      <point x="584" y="-11"/>
      <point x="702" y="86"/>
      <point x="735" y="225" type="curve"/>
      <point x="656" y="251" type="line"/>
      <point x="631" y="146"/>
      <point x="554" y="66"/>
      <point x="432" y="66" type="curve" smooth="yes"/>
      <point x="307" y="66"/>
      <point x="230" y="179"/>
      <point x="230" y="354" type="curve" smooth="yes"/>
      <point x="230" y="529"/>
      <point x="306" y="645"/>
      <point x="426" y="645" type="curve" smooth="yes"/>
      <point x="503" y="645"/>
      <point x="554" y="612"/>
      <point x="580" y="552" type="curve"/>
      <point x="588" y="593"/>
      <point x="563" y="621"/>
      <point x="538" y="622" type="curve"/>
      <point x="538" y="485" type="line"/>
      <point x="708" y="485" type="line"/>
      <point x="708" y="610" type="line"/>
      <point x="665" y="666"/>
      <point x="569" y="721"/>
      <point x="422" y="721" type="curve" smooth="yes"/>
      <point x="200" y="721"/>
      <point x="38" y="569"/>
    </contour>
  </outline>
</glyph>
<glyph name="E" format="1">
  <advance width="665"/>
  <unicode hex="0045"/>
  <outline>
    <contour>
      <point x="112" y="0" type="line"/>
      <point x="287" y="0" type="line"/>
      <point x="287" y="710" type="line"/>
      <point x="112" y="710" type="line"/>
    </contour>
    <contour>
      <point x="224" y="397" type="line"/>
      <point x="224" y="334" type="line"/>
      <point x="470" y="334" type="line"/>
      <point x="470" y="397" type="line"/>
    </contour>
    <contour>
      <point x="600" y="710" type="line"/>
      <point x="36" y="710" type="line"/>
      <point x="36" y="648" type="line"/>
      <point x="38" y="648" type="line" smooth="yes"/>
      <point x="75" y="647"/>
      <point x="112" y="641"/>
      <point x="112" y="612" type="curve"/>
      <point x="172" y="642" type="line"/>
      <point x="376" y="642" type="line" smooth="yes"/>
      <point x="469" y="642"/>
      <point x="505" y="632"/>
      <point x="513" y="592" type="curve" smooth="yes"/>
      <point x="534" y="494" type="line"/>
      <point x="600" y="494" type="line"/>
    </contour>
    <contour>
      <point x="626" y="240" type="line"/>
      <point x="558" y="240" type="line"/>
      <point x="537" y="119" type="line" smooth="yes"/>
      <point x="529" y="78"/>
      <point x="492" y="68"/>
      <point x="400" y="68" type="curve" smooth="yes"/>
      <point x="179" y="68" type="line"/>
      <point x="112" y="97" type="line"/>
      <point x="112" y="68"/>
      <point x="76" y="62"/>
      <point x="38" y="61" type="curve" smooth="yes"/>
      <point x="36" y="61" type="line"/>
      <point x="36" y="0" type="line"/>
      <point x="626" y="0" type="line"/>
    </contour>
  </outline>
</glyph>
<glyph name="G" format="1">
  <advance width="811"/>
  <unicode hex="0047"/>
  <outline>
    <contour>
      <point x="230" y="354" type="curve" smooth="yes"/>
      <point x="230" y="529"/>
      <point x="309" y="644"/>
      <point x="432" y="644" type="curve" smooth="yes"/>
      <point x="510" y="644"/>
      <point x="561" y="610"/>
      <point x="585" y="555" type="curve"/>
      <point x="592" y="594"/>
      <point x="569" y="618"/>
      <point x="545" y="617" type="curve"/>
      <point x="545" y="484" type="line"/>
      <point x="714" y="484" type="line"/>
      <point x="714" y="611" type="line"/>
      <point x="668" y="665"/>
      <point x="573" y="721"/>
      <point x="427" y="721" type="curve" smooth="yes"/>
      <point x="201" y="721"/>
      <point x="38" y="569"/>
      <point x="38" y="354" type="curve" smooth="yes"/>
      <point x="38" y="136"/>
      <point x="180" y="-11"/>
      <point x="420" y="-11" type="curve" smooth="yes"/>
      <point x="559" y="-11"/>
      <point x="678" y="50"/>
      <point x="721" y="103" type="curve"/>
      <point x="721" y="300" type="line"/>
      <point x="556" y="308" type="line"/>
      <point x="556" y="113" type="line"/>
      <point x="536" y="94"/>
      <point x="491" y="65"/>
      <point x="429" y="65" type="curve" smooth="yes"/>
      <point x="294" y="65"/>
      <point x="230" y="176"/>
    </contour>
    <contour>
      <point x="721" y="253" type="line"/>
      <point x="721" y="282"/>
      <point x="757" y="288"/>
      <point x="784" y="289" type="curve" smooth="yes"/>
      <point x="787" y="289" type="line"/>
      <point x="787" y="347" type="line"/>
      <point x="472" y="347" type="line"/>
      <point x="472" y="289" type="line"/>
      <point x="474" y="289" type="line" smooth="yes"/>
      <point x="519" y="288"/>
      <point x="556" y="282"/>
      <point x="556" y="253" type="curve"/>
    </contour>
  </outline>
</glyph>
<glyph name="H" format="1">
  <advance width="815"/>
  <unicode hex="0048"/>
  <outline>
    <contour>
      <point x="112" y="0" type="line"/>
      <point x="287" y="0" type="line"/>
      <point x="287" y="710" type="line"/>
      <point x="112" y="710" type="line"/>
    </contour>
    <contour>
      <point x="36" y="0" type="line"/>
      <point x="358" y="0" type="line"/>
      <point x="358" y="61" type="line"/>
      <point x="354" y="61" type="line" smooth="yes"/>
      <point x="330" y="61"/>
      <point x="287" y="64"/>
      <point x="287" y="71" type="curve"/>
      <point x="112" y="97" type="line"/>
      <point x="112" y="68"/>
      <point x="76" y="62"/>
      <point x="38" y="61" type="curve" smooth="yes"/>
      <point x="36" y="61" type="line"/>
    </contour>
    <contour>
      <point x="36" y="710" type="line"/>
      <point x="36" y="649" type="line"/>
      <point x="38" y="649" type="line" smooth="yes"/>
      <point x="75" y="648"/>
      <point x="112" y="642"/>
      <point x="112" y="613" type="curve"/>
      <point x="287" y="639" type="line"/>
      <point x="287" y="646"/>
      <point x="330" y="649"/>
      <point x="354" y="649" type="curve" smooth="yes"/>
      <point x="358" y="649" type="line"/>
      <point x="358" y="710" type="line"/>
    </contour>
    <contour>
      <point x="528" y="0" type="line"/>
      <point x="703" y="0" type="line"/>
      <point x="703" y="710" type="line"/>
      <point x="528" y="710" type="line"/>
    </contour>
    <contour>
      <point x="458" y="0" type="line"/>
      <point x="779" y="0" type="line"/>
      <point x="779" y="61" type="line"/>
      <point x="777" y="61" type="line" smooth="yes"/>
      <point x="739" y="62"/>
      <point x="703" y="68"/>
      <point x="703" y="97" type="curve"/>
      <point x="528" y="71" type="line"/>
      <point x="528" y="64"/>
      <point x="486" y="61"/>
      <point x="461" y="61" type="curve" smooth="yes"/>
      <point x="458" y="61" type="line"/>
    </contour>
    <contour>
      <point x="458" y="710" type="line"/>
      <point x="458" y="649" type="line"/>
      <point x="461" y="649" type="line" smooth="yes"/>
      <point x="486" y="649"/>
      <point x="528" y="646"/>
      <point x="528" y="639" type="curve"/>
      <point x="703" y="613" type="line"/>
      <point x="703" y="642"/>
      <point x="740" y="648"/>
      <point x="777" y="649" type="curve" smooth="yes"/>
      <point x="779" y="649" type="line"/>
      <point x="779" y="710" type="line"/>
    </contour>
    <contour>
      <point x="180" y="398" type="line"/>
      <point x="180" y="334" type="line"/>
      <point x="635" y="334" type="line"/>
      <point x="635" y="398" type="line"/>
    </contour>
  </outline>
</glyph>
<glyph name="K" format="1">
  <advance width="799"/>
  <unicode hex="004B"/>
  <outline>
    <contour>
      <point x="39" y="0" type="line"/>
      <point x="361" y="0" type="line"/>
      <point x="361" y="61" type="line"/>
      <point x="357" y="61" type="line" smooth="yes"/>
      <point x="333" y="61"/>
      <point x="291" y="64"/>
      <point x="291" y="71" type="curve"/>
      <point x="116" y="97" type="line"/>
      <point x="116" y="68"/>
      <point x="79" y="62"/>
      <point x="41" y="61" type="curve" smooth="yes"/>
      <point x="39" y="61" type="line"/>
    </contour>
    <contour>
      <point x="39" y="710" type="line"/>
      <point x="39" y="649" type="line"/>
      <point x="41" y="649" type="line" smooth="yes"/>
      <point x="79" y="648"/>
      <point x="116" y="642"/>
      <point x="116" y="613" type="curve"/>
      <point x="291" y="639" type="line"/>
      <point x="291" y="646"/>
      <point x="333" y="649"/>
      <point x="357" y="649" type="curve" smooth="yes"/>
      <point x="361" y="649" type="line"/>
      <point x="361" y="710" type="line"/>
    </contour>
    <contour>
      <point x="580" y="0" type="line"/>
      <point x="744" y="38" type="line"/>
      <point x="429" y="425" type="line"/>
      <point x="382" y="350" type="line"/>
      <point x="687" y="667" type="line"/>
      <point x="633" y="710" type="line"/>
      <point x="293" y="355" type="line"/>
      <point x="301" y="346" type="line"/>
    </contour>
    <contour>
      <point x="783" y="61" type="line"/>
      <point x="781" y="61" type="line" smooth="yes"/>
      <point x="736" y="61"/>
      <point x="719" y="68"/>
      <point x="695" y="97" type="curve"/>
      <point x="522" y="71" type="line"/>
      <point x="522" y="64"/>
      <point x="477" y="61"/>
      <point x="457" y="61" type="curve" smooth="yes"/>
      <point x="451" y="61" type="line"/>
      <point x="451" y="0" type="line"/>
      <point x="783" y="0" type="line"/>
    </contour>
    <contour>
      <point x="728" y="710" type="line"/>
      <point x="482" y="710" type="line"/>
      <point x="482" y="649" type="line"/>
      <point x="489" y="649" type="line" smooth="yes"/>
      <point x="519" y="649"/>
      <point x="557" y="639"/>
      <point x="557" y="631" type="curve"/>
      <point x="627" y="605" type="line"/>
      <point x="657" y="636"/>
      <point x="673" y="648"/>
      <point x="726" y="649" type="curve" smooth="yes"/>
      <point x="728" y="649" type="line"/>
    </contour>
    <contour>
      <point x="116" y="0" type="line"/>
      <point x="291" y="0" type="line"/>
      <point x="291" y="710" type="line"/>
      <point x="116" y="710" type="line"/>
    </contour>
  </outline>
</glyph>
<glyph name="L" format="1">
  <advance width="646"/>
  <unicode hex="004C"/>
  <outline>
    <contour>
      <point x="112" y="0" type="line"/>
      <point x="287" y="0" type="line"/>
      <point x="287" y="710" type="line"/>
      <point x="112" y="710" type="line"/>
    </contour>
    <contour>
      <point x="36" y="0" type="line"/>
      <point x="611" y="0" type="line"/>
      <point x="611" y="248" type="line"/>
      <point x="542" y="248" type="line"/>
      <point x="521" y="119" type="line" smooth="yes"/>
      <point x="514" y="78"/>
      <point x="476" y="68"/>
      <point x="384" y="68" type="curve" smooth="yes"/>
      <point x="160" y="68" type="line"/>
      <point x="112" y="97" type="line"/>
      <point x="112" y="68"/>
      <point x="76" y="62"/>
      <point x="38" y="61" type="curve" smooth="yes"/>
      <point x="36" y="61" type="line"/>
    </contour>
    <contour>
      <point x="366" y="710" type="line"/>
      <point x="36" y="710" type="line"/>
      <point x="36" y="649" type="line"/>
      <point x="38" y="649" type="line" smooth="yes"/>
      <point x="75" y="648"/>
      <point x="112" y="642"/>
      <point x="112" y="613" type="curve"/>
      <point x="287" y="627" type="line"/>
      <point x="287" y="644"/>
      <point x="327" y="648"/>
      <point x="362" y="649" type="curve" smooth="yes"/>
      <point x="366" y="649" type="line"/>
    </contour>
  </outline>
</glyph>
<glyph name="T" format="1">
  <advance width="711"/>
  <unicode hex="0054"/>
  <outline>
    <contour>
      <point x="268" y="0" type="line"/>
      <point x="443" y="0" type="line"/>
      <point x="443" y="710" type="line"/>
      <point x="268" y="710" type="line"/>
    </contour>
    <contour>
      <point x="477" y="642" type="line" smooth="yes"/>
      <point x="560" y="642"/>
      <point x="592" y="632"/>
      <point x="600" y="592" type="curve" smooth="yes"/>
      <point x="621" y="483" type="line"/>
      <point x="684" y="483" type="line"/>
      <point x="684" y="710" type="line"/>
      <point x="27" y="710" type="line"/>
      <point x="27" y="483" type="line"/>
      <point x="90" y="483" type="line"/>
      <point x="111" y="592" type="line" smooth="yes"/>
      <point x="119" y="632"/>
      <point x="151" y="642"/>
      <point x="235" y="642" type="curve" smooth="yes"/>
    </contour>
    <contour>
      <point x="268" y="97" type="line"/>
      <point x="268" y="68"/>
      <point x="231" y="62"/>
      <point x="194" y="61" type="curve" smooth="yes"/>
      <point x="187" y="61" type="line"/>
      <point x="187" y="0" type="line"/>
      <point x="524" y="0" type="line"/>
      <point x="524" y="61" type="line"/>
      <point x="517" y="61" type="line" smooth="yes"/>
      <point x="480" y="62"/>
      <point x="443" y="68"/>
      <point x="443" y="97" type="curve"/>
    </contour>
  </outline>
</glyph>
<glyph name="V" format="1">
  <advance width="726"/>
  <unicode hex="0056"/>
  <outline>
    <contour>
      <point x="670" y="710" type="line"/>
      <point x="589" y="710" type="line"/>
      <point x="371" y="0" type="line"/>
      <point x="449" y="0" type="line"/>
    </contour>
    <contour>
      <point x="220" y="710" type="line"/>
      <point x="52" y="710" type="line"/>
      <point x="277" y="0" type="line"/>
      <point x="410" y="0" type="line"/>
      <point x="423" y="43" type="line"/>
    </contour>
    <contour>
      <point x="713" y="710" type="line"/>
      <point x="480" y="710" type="line"/>
      <point x="480" y="649" type="line"/>
      <point x="494" y="649" type="line" smooth="yes"/>
      <point x="537" y="649"/>
      <point x="566" y="642"/>
      <point x="566" y="632" type="curve"/>
      <point x="635" y="598" type="line"/>
      <point x="647" y="636"/>
      <point x="673" y="649"/>
      <point x="709" y="649" type="curve"/>
      <point x="713" y="649" type="line"/>
    </contour>
    <contour>
      <point x="13" y="710" type="line"/>
      <point x="13" y="649" type="line"/>
      <point x="16" y="649" type="line"/>
      <point x="49" y="649"/>
      <point x="72" y="646"/>
      <point x="82" y="615" type="curve"/>
      <point x="241" y="638" type="line"/>
      <point x="241" y="645"/>
      <point x="286" y="649"/>
      <point x="321" y="649" type="curve" smooth="yes"/>
      <point x="331" y="649" type="line"/>
      <point x="331" y="710" type="line"/>
    </contour>
  </outline>
</glyph>
<glyph name="Z" format="1">
  <advance width="672"/>
  <unicode hex="005A"/>
  <outline>
    <contour>
      <point x="138" y="68" type="line"/>
      <point x="208" y="41" type="line"/>
      <point x="619" y="630" type="line"/>
      <point x="619" y="710" type="line"/>
      <point x="54" y="710" type="line"/>
      <point x="54" y="492" type="line"/>
      <point x="121" y="492" type="line"/>
      <point x="141" y="592" type="line" smooth="yes"/>
      <point x="149" y="632"/>
      <point x="186" y="642"/>
      <point x="278" y="642" type="curve" smooth="yes"/>
      <point x="520" y="642" type="line"/>
      <point x="442" y="658" type="line"/>
      <point x="41" y="82" type="line"/>
      <point x="41" y="0" type="line"/>
      <point x="631" y="0" type="line"/>
      <point x="631" y="244" type="line"/>
      <point x="562" y="244" type="line"/>
      <point x="541" y="119" type="line" smooth="yes"/>
      <point x="535" y="78"/>
      <point x="497" y="68"/>
      <point x="404" y="68" type="curve" smooth="yes"/>
    </contour>
  </outline>
</glyph>
<glyph name="e" format="1">
  <advance width="622"/>
  <unicode hex="0065"/>
  <outline>
    <contour>
      <point x="199" y="268" type="curve" smooth="yes"/>
      <point x="199" y="409"/>
      <point x="252" y="483"/>
      <point x="320" y="483" type="curve"/>
      <point x="390" y="483"/>
      <point x="421" y="423"/>
      <point x="424" y="292" type="curve"/>
      <point x="486" y="313" type="line"/>
      <point x="134" y="313" type="line"/>
      <point x="135" y="255" type="line"/>
      <point x="589" y="255" type="line"/>
      <point x="589" y="447"/>
      <point x="493" y="552"/>
      <point x="320" y="552" type="curve"/>
      <point x="160" y="552"/>
      <point x="34" y="444"/>
      <point x="34" y="270" type="curve" smooth="yes"/>
      <point x="34" y="92"/>
      <point x="165" y="-12"/>
      <point x="338" y="-12" type="curve" smooth="yes"/>
      <point x="454" y="-12"/>
      <point x="546" y="37"/>
      <point x="584" y="120" type="curve"/>
      <point x="514" y="150" type="line"/>
      <point x="487" y="101"/>
      <point x="438" y="57"/>
      <point x="357" y="57" type="curve" smooth="yes"/>
      <point x="263" y="57"/>
      <point x="199" y="130"/>
    </contour>
  </outline>
</glyph>
<glyph name="l" format="1">
  <advance width="357"/>
  <unicode hex="006C"/>
  <outline>
    <contour>
      <point x="32" y="750" type="line"/>
      <point x="32" y="698" type="line"/>
      <point x="42" y="695" type="line" smooth="yes"/>
      <point x="78" y="686"/>
      <point x="102" y="680"/>
      <point x="102" y="651" type="curve" smooth="yes"/>
      <point x="102" y="0" type="line"/>
      <point x="262" y="0" type="line"/>
      <point x="262" y="750" type="line"/>
    </contour>
    <contour>
      <point x="332" y="0" type="line"/>
      <point x="332" y="52" type="line"/>
      <point x="332" y="52" type="line"/>
      <point x="297" y="54"/>
      <point x="262" y="60"/>
      <point x="262" y="89" type="curve"/>
      <point x="102" y="89" type="line"/>
      <point x="102" y="60"/>
      <point x="68" y="54"/>
      <point x="33" y="52" type="curve"/>
      <point x="32" y="52" type="line"/>
      <point x="32" y="0" type="line"/>
    </contour>
  </outline>
</glyph>
<glyph name="r" format="1">
  <advance width="459"/>
  <unicode hex="0072"/>
  <outline>
    <contour>
      <point x="434" y="550" type="line"/>
      <point x="429" y="552"/>
      <point x="418" y="553"/>
      <point x="403" y="553" type="curve" smooth="yes"/>
      <point x="335" y="553"/>
      <point x="290" y="496"/>
      <point x="243" y="379" type="curve"/>
      <point x="251" y="334" type="line"/>
      <point x="284" y="404"/>
      <point x="323" y="427"/>
      <point x="372" y="427" type="curve" smooth="yes"/>
      <point x="392" y="427"/>
      <point x="409" y="424"/>
      <point x="434" y="419" type="curve"/>
    </contour>
    <contour>
      <point x="33" y="0" type="line"/>
      <point x="337" y="0" type="line"/>
      <point x="337" y="52" type="line"/>
      <point x="332" y="52" type="line" smooth="yes"/>
      <point x="299" y="53"/>
      <point x="264" y="56"/>
      <point x="264" y="67" type="curve"/>
      <point x="104" y="89" type="line"/>
      <point x="104" y="60"/>
      <point x="69" y="54"/>
      <point x="34" y="52" type="curve"/>
      <point x="33" y="52" type="line"/>
    </contour>
    <contour>
      <point x="33" y="542" type="line"/>
      <point x="33" y="489" type="line"/>
      <point x="43" y="487" type="line" smooth="yes"/>
      <point x="80" y="478"/>
      <point x="104" y="471"/>
      <point x="104" y="442" type="curve" smooth="yes"/>
      <point x="104" y="0" type="line"/>
      <point x="264" y="0" type="line"/>
      <point x="264" y="388" type="line"/>
      <point x="256" y="387" type="line"/>
      <point x="256" y="542" type="line"/>
    </contour>
  </outline>
</glyph>
<glyph name="endash" format="1">
  <advance width="616"/>
  <unicode hex="2013"/>
  <outline>
    <contour>
      <point x="83" y="343" type="line"/>
      <point x="83" y="287" type="line"/>
      <point x="532" y="287" type="line"/>
      <point x="532" y="343" type="line"/>
    </contour>
  </outline>
</glyph>
<glyph name="emdash" format="1">
  <advance width="956"/>
  <unicode hex="2014"/>
  <outline>
    <contour>
      <point x="83" y="343" type="line"/>
      <point x="83" y="287" type="line"/>
      <point x="872" y="287" type="line"/>
      <point x="872" y="343" type="line"/>
    </contour>
  </outline>
</glyph>
<glyph name="G.srf" format="1">
  <advance width="800"/>
  <outline>
    <contour>
      <point x="472" y="355" type="line"/>
      <point x="472" y="297" type="line"/>
      <point x="474" y="297" type="line" smooth="yes"/>
      <point x="519" y="296"/>
      <point x="556" y="290"/>
      <point x="556" y="261" type="curve"/>
      <point x="721" y="261" type="line"/>
      <point x="721" y="290"/>
      <point x="757" y="296"/>
      <point x="783" y="297" type="curve" smooth="yes"/>
      <point x="785" y="297" type="line"/>
      <point x="785" y="355" type="line"/>
    </contour>
    <contour>
      <point x="412" y="721" type="curve" smooth="yes"/>
      <point x="196" y="721"/>
      <point x="38" y="569"/>
      <point x="38" y="355" type="curve" smooth="yes"/>
      <point x="38" y="137"/>
      <point x="180" y="-11"/>
      <point x="420" y="-11" type="curve" smooth="yes"/>
      <point x="559" y="-11"/>
      <point x="682" y="50"/>
      <point x="721" y="100" type="curve"/>
      <point x="721" y="308" type="line"/>
      <point x="556" y="316" type="line"/>
      <point x="556" y="107" type="line"/>
      <point x="534" y="86"/>
      <point x="491" y="65"/>
      <point x="427" y="65" type="curve" smooth="yes"/>
      <point x="294" y="65"/>
      <point x="230" y="177"/>
      <point x="230" y="355" type="curve" smooth="yes"/>
      <point x="230" y="531"/>
      <point x="307" y="645"/>
      <point x="431" y="645" type="curve" smooth="yes"/>
      <point x="541" y="645"/>
      <point x="611" y="578"/>
      <point x="648" y="477" type="curve"/>
      <point x="720" y="477" type="line"/>
      <point x="720" y="711" type="line"/>
      <point x="640" y="711" type="line"/>
      <point x="626" y="560" type="line"/>
      <point x="636" y="543"/>
      <point x="662" y="543"/>
      <point x="682" y="533" type="curve"/>
      <point x="643" y="637"/>
      <point x="556" y="721"/>
    </contour>
  </outline>
</glyph>
<glyph name="K.alt" format="1">
  <advance width="804"/>
  <outline>
    <contour>
      <point x="582" y="0" type="line"/>
      <point x="706" y="24" type="line"/>
      <point x="744" y="38" type="line"/>
      <point x="453" y="432" type="line"/>
      <point x="423" y="371" type="line"/>
      <point x="685" y="665" type="line"/>
      <point x="671" y="686" type="line"/>
      <point x="633" y="710" type="line"/>
      <point x="329" y="367" type="line"/>
      <point x="329" y="350" type="line"/>
    </contour>
    <contour>
      <point x="116" y="0" type="line"/>
      <point x="291" y="0" type="line"/>
      <point x="291" y="710" type="line"/>
      <point x="116" y="710" type="line"/>
    </contour>
    <contour>
      <point x="39" y="710" type="line"/>
      <point x="39" y="649" type="line"/>
      <point x="41" y="649" type="line" smooth="yes"/>
      <point x="79" y="648"/>
      <point x="116" y="642"/>
      <point x="116" y="613" type="curve"/>
      <point x="291" y="639" type="line"/>
      <point x="291" y="646"/>
      <point x="333" y="649"/>
      <point x="357" y="649" type="curve" smooth="yes"/>
      <point x="361" y="649" type="line"/>
      <point x="361" y="710" type="line"/>
    </contour>
    <contour>
      <point x="731" y="710" type="line"/>
      <point x="485" y="710" type="line"/>
      <point x="485" y="649" type="line"/>
      <point x="492" y="649" type="line" smooth="yes"/>
      <point x="527" y="649"/>
      <point x="561" y="639"/>
      <point x="561" y="631" type="curve"/>
      <point x="631" y="605" type="line"/>
      <point x="658" y="635"/>
      <point x="682" y="648"/>
      <point x="729" y="649" type="curve" smooth="yes"/>
      <point x="731" y="649" type="line"/>
    </contour>
    <contour>
      <point x="39" y="0" type="line"/>
      <point x="361" y="0" type="line"/>
      <point x="361" y="61" type="line"/>
      <point x="357" y="61" type="line" smooth="yes"/>
      <point x="333" y="61"/>
      <point x="291" y="64"/>
      <point x="291" y="71" type="curve"/>
      <point x="116" y="97" type="line"/>
      <point x="116" y="68"/>
      <point x="79" y="62"/>
      <point x="41" y="61" type="curve" smooth="yes"/>
      <point x="39" y="61" type="line"/>
    </contour>
    <contour>
      <point x="787" y="0" type="line"/>
      <point x="787" y="61" type="line"/>
      <point x="785" y="61" type="line" smooth="yes"/>
      <point x="740" y="61"/>
      <point x="721" y="68"/>
      <point x="698" y="98" type="curve"/>
      <point x="528" y="71" type="line"/>
      <point x="528" y="64"/>
      <point x="486" y="61"/>
      <point x="461" y="61" type="curve" smooth="yes"/>
      <point x="454" y="61" type="line"/>
      <point x="454" y="0" type="line"/>
    </contour>
    <contour>
      <point x="264" y="396" type="line"/>
      <point x="264" y="330" type="line"/>
      <point x="382" y="330" type="line"/>
      <point x="381" y="396" type="line"/>
    </contour>
  </outline>
</glyph>
<glyph name="f.alt" format="1">
  <advance width="408"/>
  <outline>
    <contour>
      <point x="47" y="38" type="line"/>
      <point x="47" y="0" type="line"/>
      <point x="348" y="0" type="line"/>
      <point x="348" y="38" type="line"/>
      <point x="336" y="38" type="line" smooth="yes"/>
      <point x="278" y="38"/>
      <point x="235" y="46"/>
      <point x="235" y="68" type="curve"/>
      <point x="146" y="74" type="line"/>
      <point x="146" y="45"/>
      <point x="110" y="38"/>
      <point x="58" y="38" type="curve"/>
    </contour>
    <contour>
      <point x="47" y="540" type="line"/>
      <point x="47" y="495" type="line"/>
      <point x="382" y="495" type="line"/>
      <point x="382" y="540" type="line"/>
    </contour>
    <contour>
      <point x="235" y="582" type="line" smooth="yes"/>
      <point x="235" y="677"/>
      <point x="277" y="707"/>
      <point x="338" y="707" type="curve" smooth="yes"/>
      <point x="368" y="707"/>
      <point x="392" y="704"/>
      <point x="413" y="698" type="curve"/>
      <point x="413" y="752" type="line"/>
      <point x="395" y="758"/>
      <point x="364" y="760"/>
      <point x="336" y="760" type="curve" smooth="yes"/>
      <point x="244" y="760"/>
      <point x="146" y="722"/>
      <point x="146" y="582" type="curve"/>
      <point x="146" y="3" type="line"/>
      <point x="235" y="3" type="line"/>
    </contour>
  </outline>
</glyph>
<glyph name="j.alt" format="1">
  <advance width="362"/>
  <outline>
    <contour>
      <point x="182" y="613" type="curve" smooth="yes"/>
      <point x="241" y="613"/>
      <point x="279" y="645"/>
      <point x="279" y="693" type="curve" smooth="yes"/>
      <point x="279" y="739"/>
      <point x="241" y="772"/>
      <point x="182" y="772" type="curve" smooth="yes"/>
      <point x="123" y="772"/>
      <point x="85" y="739"/>
      <point x="85" y="693" type="curve" smooth="yes"/>
      <point x="85" y="645"/>
      <point x="123" y="613"/>
    </contour>
    <contour>
      <point x="107" y="-45" type="line" smooth="yes"/>
      <point x="107" y="-138"/>
      <point x="77" y="-179"/>
      <point x="20" y="-179" type="curve" smooth="yes"/>
      <point x="-15" y="-179"/>
      <point x="-46" y="-169"/>
      <point x="-65" y="-139" type="curve"/>
      <point x="-68" y="-166"/>
      <point x="-51" y="-187"/>
      <point x="-32" y="-187" type="curve"/>
      <point x="-32" y="-71" type="line"/>
      <point x="-172" y="-71" type="line"/>
      <point x="-172" y="-163" type="line"/>
      <point x="-139" y="-206"/>
      <point x="-66" y="-238"/>
      <point x="25" y="-238" type="curve" smooth="yes"/>
      <point x="154" y="-238"/>
      <point x="267" y="-183"/>
      <point x="267" y="-19" type="curve" smooth="yes"/>
      <point x="267" y="542" type="line"/>
      <point x="34" y="542" type="line"/>
      <point x="34" y="489" type="line"/>
      <point x="47" y="487" type="line" smooth="yes"/>
      <point x="83" y="479"/>
      <point x="107" y="471"/>
      <point x="107" y="442" type="curve" smooth="yes"/>
    </contour>
  </outline>
</glyph>
